<?xml version="1.0" encoding="utf-8"?>
<!-- Svg Vector Icons : http://www.onlinewebfonts.com/icon -->
<!DOCTYPE svg PUBLIC "-//W3C//DTD SVG 1.1//EN" "http://www.w3.org/Graphics/SVG/1.1/DTD/svg11.dtd">
<svg version="1.1" xmlns="http://www.w3.org/2000/svg" xmlns:xlink="http://www.w3.org/1999/xlink" x="0px" y="0px" viewBox="0 0 256 256" enable-background="new 0 0 256 256" xml:space="preserve">
<metadata> Svg Vector Icons : http://www.onlinewebfonts.com/icon </metadata>
<g><g><path fill="#000000" d="M209.1,110.9c-4.2,0-7.4,3.4-7.4,7.7v7.7v69.3v17.1c0,10.1-7.8,18.7-17.9,18.7H46.6c-10.1,0-21.8-8.6-21.8-18.7V75c0-10.1,11.8-20.9,21.8-20.9H56h46h23c4.2,0,7.7-3.1,7.7-7.4c0-4.3-3.4-7.4-7.7-7.4h-23H56h-9.4C26.4,39.3,10,54.8,10,75v137.7c0,20.3,16.4,33.5,36.6,33.5h137.2c20.2,0,32.7-13.2,32.7-33.5v-17.1v-69.2v-7.7C216.5,114.4,213.4,110.9,209.1,110.9z"/><path fill="#000000" d="M239.4,27.5l-11.2-11.3c-8.5-8.6-23.6-8.6-32.1,0l-21.2,25L61.6,149.7v2.6l-0.1,0.5l-14.2,48.3l10.5,9.3l45.7-16.1l0.6,0.1h2.2L214.4,81l24.9-20.4C248.2,51.7,248.2,36.4,239.4,27.5z M67.4,190.6l6.6-21.2l13.3,13.3L67.4,190.6z M100.8,174.7l-19.6-19.6L182.4,54.3l18.9,19L100.8,174.7z M228.7,49l-15.1,15.1l-21.9-22L206.7,27c1.4-1.4,3.3-2.2,5.3-2.2c2,0,3.9,0.8,5.4,2.2l11.2,11.3C231.6,41.2,231.6,46,228.7,49z"/></g></g>
</svg>